<svg width="281" height="234" viewBox="0 0 281 234" fill="none" xmlns="http://www.w3.org/2000/svg">
<path d="M161.015 41.9779C180.469 18.7942 215.033 15.7702 238.217 35.2236C261.401 54.6771 264.425 89.2414 244.971 112.425L107.962 275.707C88.5081 298.891 53.9438 301.915 30.76 282.461C7.57629 263.008 4.5523 228.443 24.0058 205.26L161.015 41.9779Z" fill="#D6D6D6"/>
<path d="M162.949 148.961C176.833 132.414 201.503 130.256 218.05 144.14C234.596 158.024 236.755 182.694 222.87 199.241L129.061 311.038C115.177 327.585 90.5075 329.743 73.9607 315.858C57.4139 301.974 55.2556 277.305 69.14 260.758L162.949 148.961Z" fill="#1E40AF"/>
<path d="M99.3542 57.6374C113.239 41.0906 137.908 38.9323 154.455 52.8167C171.002 66.7012 173.16 91.3706 159.275 107.917L32.0613 259.525C18.1769 276.072 -6.4925 278.23 -23.0393 264.346C-39.5861 250.462 -41.7444 225.792 -27.86 209.245L99.3542 57.6374Z" fill="#3B82F6"/>
</svg>
