<svg xmlns="http://www.w3.org/2000/svg" version="1.1" xmlns:xlink="http://www.w3.org/1999/xlink" xmlns:svgjs="http://svgjs.dev/svgjs" width="1440" height="1024" preserveAspectRatio="none" viewBox="0 0 1440 1024"><g mask="url(&quot;#SvgjsMask1045&quot;)" fill="none"><path d="M89.76823993710325 343.42834036672036L318.0623303237587 137.87141809327906 112.5054080503174-90.42267229337642-115.78868233633806 115.13424998006491z" fill="rgba(30, 64, 175, 0.251)" class="triangle-float1"></path><path d="M235.045,506.274C331.142,511.915,418.542,452.141,466.806,368.852C515.208,285.326,520.411,181.753,471.237,98.679C422.911,17.037,329.914,-21.97,235.045,-22.687C138.752,-23.414,36.691,9.46,-7.409,95.064C-49.092,175.976,-0.165,265.749,46.063,344.153C91.244,420.781,146.242,501.061,235.045,506.274" fill="rgba(30, 64, 175, 0.251)" class="triangle-float1"></path><path d="M-69.67 -66.87 a2.8 2.8 0 1 0 5.6 0 a2.8 2.8 0 1 0 -5.6 0z" fill="rgba(30, 64, 175, 0.251)" class="triangle-float2"></path><path d="M1482.236,478.169C1575.722,476.944,1680.152,469.245,1728.306,389.105C1777.426,307.357,1741.161,207.654,1694.889,124.261C1646.749,37.501,1581.452,-55.325,1482.236,-54.372C1383.963,-53.428,1325.345,42.974,1276.54,128.277C1228.212,212.748,1175.414,311.81,1224.735,395.705C1273.691,478.98,1385.645,479.435,1482.236,478.169" fill="rgba(30, 64, 175, 0.251)" class="triangle-float2"></path><path d="M1394.179,350.155C1458.181,344.593,1505.392,297.368,1537.725,241.855C1570.335,185.866,1589.278,120.865,1561.943,62.12C1530.068,-6.38,1469.697,-68.936,1394.179,-66.632C1321.036,-64.401,1279.752,8.417,1243.254,71.842C1206.89,135.035,1165.001,207.136,1199.757,271.228C1235.494,337.128,1319.495,356.646,1394.179,350.155" fill="rgba(30, 64, 175, 0.251)" class="triangle-float2"></path><path d="M1212.7061128287266 237.2664740998967L1403.9033841753535 310.660230166774 1418.3953826023562-12.832554886605067z" fill="rgba(30, 64, 175, 0.251)" class="triangle-float3"></path><path d="M64.956,992.319C106.43,994.536,149.819,981.097,171.417,945.621C193.747,908.944,187.136,863.186,166.498,825.531C144.908,786.139,109.827,749.253,64.956,751.378C22.256,753.4,-2.662,795.895,-21.191,834.419C-36.802,866.876,-40.71,903.587,-23.461,935.204C-5.45,968.216,27.404,990.312,64.956,992.319" fill="rgba(30, 64, 175, 0.251)" class="triangle-float1"></path><path d="M-159.77 842.43 a183 183 0 1 0 366 0 a183 183 0 1 0 -366 0z" fill="rgba(30, 64, 175, 0.251)" class="triangle-float1"></path><path d="M-76.96477713024309 760.0992292673486L-60.887171372410585 1066.8782223439537 245.89182170419446 1050.8006165861211 229.81421594636197 744.0216235095161z" fill="rgba(30, 64, 175, 0.251)" class="triangle-float1"></path><path d="M1151.64 766.22 a30.58 30.58 0 1 0 61.16 0 a30.58 30.58 0 1 0 -61.16 0z" fill="rgba(30, 64, 175, 0.251)" class="triangle-float2"></path><path d="M1442.6728917889125 787.1128313844529L1119.054517953323 924.1168431035255 1361.131421461308 1113.2480483235677z" fill="rgba(30, 64, 175, 0.251)" class="triangle-float3"></path><path d="M1113.85 804.02 a106.17 106.17 0 1 0 212.34 0 a106.17 106.17 0 1 0 -212.34 0z" fill="rgba(30, 64, 175, 0.251)" class="triangle-float3"></path></g><defs><mask id="SvgjsMask1045"><rect width="1440" height="1024" fill="#ffffff"></rect></mask><style>
                @keyframes float1 {
                    0%{transform: translate(0, 0)}
                    50%{transform: translate(-10px, 0)}
                    100%{transform: translate(0, 0)}
                }

                .triangle-float1 {
                    animation: float1 5s infinite;
                }

                @keyframes float2 {
                    0%{transform: translate(0, 0)}
                    50%{transform: translate(-5px, -5px)}
                    100%{transform: translate(0, 0)}
                }

                .triangle-float2 {
                    animation: float2 4s infinite;
                }

                @keyframes float3 {
                    0%{transform: translate(0, 0)}
                    50%{transform: translate(0, -10px)}
                    100%{transform: translate(0, 0)}
                }

                .triangle-float3 {
                    animation: float3 6s infinite;
                }
            </style></defs></svg>